<?xml version="1.0" encoding="UTF-8"?>
<svg width="18px" height="18px" viewBox="0 0 18 18" version="1.1" xmlns="http://www.w3.org/2000/svg" xmlns:xlink="http://www.w3.org/1999/xlink">
    <g stroke="none" stroke-width="1" fill="none" fill-rule="evenodd">
        <path d="M15.4517,13.794 C15.0567,14.557 14.6157,15.27 14.0257,15.937 C13.2397,16.819 12.5517,17.389 11.9677,17.648 C11.0677,18.068 10.1137,18.286 9.1027,18.305 C8.3547,18.305 7.4777,18.127 6.4747,17.767 C5.4707,17.409 4.5517,17.229 3.7157,17.229 C2.8397,17.229 1.8917,17.409 0.8717,17.767 C-0.1493,18.127 -0.9293,18.315 -1.4673,18.334 C-2.4393,18.372 -3.3753,18.163 -4.2743,17.705 C-4.8973,17.408 -5.6103,16.819 -6.4153,15.937 C-7.2783,14.994 -7.9853,13.87 -8.5373,12.563 C-9.1373,11.143 -9.4373,9.762 -9.4373,8.42 C-9.4373,6.879 -9.0613,5.523 -8.3093,4.355 C-7.7183,3.416 -6.9513,2.668 -6.0073,2.109 C-5.0633,1.551 -4.0403,1.266 -2.9373,1.247 C-2.1513,1.247 -1.1473,1.456 0.0747,1.872 C1.2957,2.287 2.1207,2.497 2.5537,2.497 C2.8777,2.497 3.7917,2.249 5.2927,1.758 C6.7157,1.304 7.9177,1.133 8.9027,1.247 C10.8787,1.475 12.3417,2.383 13.2867,3.977 C11.5347,5.016 10.6697,6.517 10.6887,8.477 C10.7067,10.018 11.2587,11.295 12.3417,12.304 C12.8417,12.781 13.3987,13.153 14.0167,13.421 C13.8357,13.563 13.6487,13.697 13.4547,13.822 L15.4517,13.794 Z M9.0377,-2.1 C9.0377,-0.863 8.6047,0.289 7.7407,1.35 C6.7007,2.593 5.4327,3.302 4.0477,3.207 C4.0287,3.055 4.0177,2.896 4.0177,2.726 C4.0177,1.541 4.5167,0.289 5.4137,-0.676 C5.8617,-1.163 6.4257,-1.561 7.1057,-1.87 C7.7847,-2.174 8.4247,-2.345 9.0247,-2.383 C9.0377,-2.288 9.0377,-2.194 9.0377,-2.1 L9.0377,-2.1 Z" fill="#000000" fill-rule="nonzero"></path>
    </g>
</svg>
